<?xml version="1.0" standalone="no"?>
<!DOCTYPE svg PUBLIC "-//W3C//DTD SVG 1.1//EN"
"http://www.w3.org/Graphics/SVG/1.1/DTD/svg11.dtd">

<svg width="1466" height="333" view_box="0 0 1466 333"
xmlns="http://www.w3.org/2000/svg"
xmlns:link="http://www.w3.org/1999/xlink">\n\n<desc>Généré par Mocodo 2.3.7 le Mon, 27 Jul 2020 07:53:22</desc>

<rect id="frame" x="0" y="0" width="1466" height="333" fill="#fefeec" stroke="none" stroke-width="0"/>

<!-- Association passer -->
<line x1="1418" y1="190" x2="1291" y2="190" stroke="#060100" stroke-width="1"/>
<text x="1355" y="206.0" fill="#060100" font-family="Futura" font-size="11">0,N</text>
<line x1="1148" y1="190" x2="1291" y2="190" stroke="#060100" stroke-width="1"/>
<text x="1208" y="206.0" fill="#060100" font-family="Futura" font-size="11">1,1</text>
<g id="association-passer">
	<path d="M 1336 161 a 14 14 90 0 1 14 14 V 189 h -118 V 175 a 14 14 90 0 1 14 -14" fill="#081a84" stroke="#081a84" stroke-width="0"/>
	<path d="M 1350 189.0 v 16 a 14 14 90 0 1 -14 14 H 1246 a 14 14 90 0 1 -14 -14 V 189.0 H 118" fill="#fefeec" stroke="#fefeec" stroke-width="0"/>
	<rect x="1232" y="161" width="118" height="58" fill="none" rx="14" stroke="#060100" stroke-width="1.5"/>
	<line x1="1232" y1="189" x2="1350" y2="189" stroke="#060100" stroke-width="1.5"/>
	<text x="1260" y="182.3" fill="#fefeec" font-family="Copperplate" font-size="18">passer</text>
	<text x="1239" y="207.1" fill="#060100" font-family="Gill Sans" font-size="15">DateCommande</text>
</g>

<!-- Association rediger -->
<line x1="561" y1="190" x2="300" y2="320" stroke="#060100" stroke-width="1"/>
<text x="481" y="213.786926491" fill="#060100" font-family="Futura" font-size="11">0,N</text>
<line x1="51" y1="190" x2="300" y2="320" stroke="#060100" stroke-width="1"/>
<text x="98" y="208.003092061" fill="#060100" font-family="Futura" font-size="11">1,N</text>
<g id="association-rediger">
	<path d="M 329 291 a 14 14 90 0 1 14 14 V 319 h -86 V 305 a 14 14 90 0 1 14 -14" fill="#081a84" stroke="#081a84" stroke-width="0"/>
	<path d="M 343 319.0 v 16 a 14 14 90 0 1 -14 14 H 271 a 14 14 90 0 1 -14 -14 V 319.0 H 86" fill="#fefeec" stroke="#fefeec" stroke-width="0"/>
	<rect x="257" y="291" width="86" height="58" fill="none" rx="14" stroke="#060100" stroke-width="1.5"/>
	<line x1="257" y1="319" x2="343" y2="319" stroke="#060100" stroke-width="1.5"/>
	<text x="264" y="312.3" fill="#fefeec" font-family="Copperplate" font-size="18">rediger</text>
</g>

<!-- Association contenir -->
<line x1="1148" y1="190" x2="1016" y2="190" stroke="#060100" stroke-width="1"/>
<text x="1069" y="206.0" fill="#060100" font-family="Futura" font-size="11">1,N</text>
<line x1="879" y1="190" x2="1016" y2="190" stroke="#060100" stroke-width="1"/>
<text x="944" y="206.0" fill="#060100" font-family="Futura" font-size="11">1,1</text>
<g id="association-contenir">
	<path d="M 1050 161 a 14 14 90 0 1 14 14 V 189 h -96 V 175 a 14 14 90 0 1 14 -14" fill="#081a84" stroke="#081a84" stroke-width="0"/>
	<path d="M 1064 189.0 v 16 a 14 14 90 0 1 -14 14 H 982 a 14 14 90 0 1 -14 -14 V 189.0 H 96" fill="#fefeec" stroke="#fefeec" stroke-width="0"/>
	<rect x="968" y="161" width="96" height="58" fill="none" rx="14" stroke="#060100" stroke-width="1.5"/>
	<line x1="968" y1="189" x2="1064" y2="189" stroke="#060100" stroke-width="1.5"/>
	<text x="975" y="182.3" fill="#fefeec" font-family="Copperplate" font-size="18">contenir</text>
	<text x="975" y="207.1" fill="#060100" font-family="Gill Sans" font-size="15">quantite</text>
</g>

<!-- Association appartenir -->
<line x1="561" y1="190" x2="718" y2="47" stroke="#060100" stroke-width="1"/>
<text x="622" y="148.38878545" fill="#060100" font-family="Futura" font-size="11">1,1</text>
<line x1="561" y1="47" x2="718" y2="47" stroke="#060100" stroke-width="1"/>
<text x="620" y="63.0" fill="#060100" font-family="Futura" font-size="11">0,N</text>
<g id="association-appartenir">
	<path d="M 761 18 a 14 14 90 0 1 14 14 V 46 h -114 V 32 a 14 14 90 0 1 14 -14" fill="#081a84" stroke="#081a84" stroke-width="0"/>
	<path d="M 775 46.0 v 16 a 14 14 90 0 1 -14 14 H 675 a 14 14 90 0 1 -14 -14 V 46.0 H 114" fill="#fefeec" stroke="#fefeec" stroke-width="0"/>
	<rect x="661" y="18" width="114" height="58" fill="none" rx="14" stroke="#060100" stroke-width="1.5"/>
	<line x1="661" y1="46" x2="775" y2="46" stroke="#060100" stroke-width="1.5"/>
	<text x="668" y="39.3" fill="#fefeec" font-family="Copperplate" font-size="18">appartenir</text>
</g>

<!-- Association travailler -->
<line x1="51" y1="190" x2="178" y2="190" stroke="#060100" stroke-width="1"/>
<text x="98" y="182.0" fill="#060100" font-family="Futura" font-size="11">1,N</text>
<line x1="319" y1="190" x2="178" y2="190" stroke="#060100" stroke-width="1"/>
<text x="239" y="206.0" fill="#060100" font-family="Futura" font-size="11">1,N</text>
<g id="association-travailler">
	<path d="M 220 161 a 14 14 90 0 1 14 14 V 189 h -112 V 175 a 14 14 90 0 1 14 -14" fill="#081a84" stroke="#081a84" stroke-width="0"/>
	<path d="M 234 189.0 v 16 a 14 14 90 0 1 -14 14 H 136 a 14 14 90 0 1 -14 -14 V 189.0 H 112" fill="#fefeec" stroke="#fefeec" stroke-width="0"/>
	<rect x="122" y="161" width="112" height="58" fill="none" rx="14" stroke="#060100" stroke-width="1.5"/>
	<line x1="122" y1="189" x2="234" y2="189" stroke="#060100" stroke-width="1.5"/>
	<text x="129" y="182.3" fill="#fefeec" font-family="Copperplate" font-size="18">travailler</text>
</g>

<!-- Association editer -->
<line x1="561" y1="190" x2="440" y2="190" stroke="#060100" stroke-width="1"/>
<text x="482" y="206.0" fill="#060100" font-family="Futura" font-size="11">1,1</text>
<line x1="319" y1="190" x2="440" y2="190" stroke="#060100" stroke-width="1"/>
<text x="380" y="206.0" fill="#060100" font-family="Futura" font-size="11">1,N</text>
<g id="association-editer">
	<path d="M 462 161 a 14 14 90 0 1 14 14 V 189 h -72 V 175 a 14 14 90 0 1 14 -14" fill="#081a84" stroke="#081a84" stroke-width="0"/>
	<path d="M 476 189.0 v 16 a 14 14 90 0 1 -14 14 H 418 a 14 14 90 0 1 -14 -14 V 189.0 H 72" fill="#fefeec" stroke="#fefeec" stroke-width="0"/>
	<rect x="404" y="161" width="72" height="58" fill="none" rx="14" stroke="#060100" stroke-width="1.5"/>
	<line x1="404" y1="189" x2="476" y2="189" stroke="#060100" stroke-width="1.5"/>
	<text x="411" y="182.3" fill="#fefeec" font-family="Copperplate" font-size="18">editer</text>
</g>

<!-- Association correspondre -->
<line x1="561" y1="190" x2="718" y2="190" stroke="#060100" stroke-width="1"/>
<text x="622" y="206.0" fill="#060100" font-family="Futura" font-size="11">0,N</text>
<line x1="879" y1="190" x2="718" y2="190" stroke="#060100" stroke-width="1"/>
<text x="796" y="206.0" fill="#060100" font-family="Futura" font-size="11">1,1</text>
<g id="association-correspondre">
	<path d="M 776 161 a 14 14 90 0 1 14 14 V 189 h -144 V 175 a 14 14 90 0 1 14 -14" fill="#081a84" stroke="#081a84" stroke-width="0"/>
	<path d="M 790 189.0 v 16 a 14 14 90 0 1 -14 14 H 660 a 14 14 90 0 1 -14 -14 V 189.0 H 144" fill="#fefeec" stroke="#fefeec" stroke-width="0"/>
	<rect x="646" y="161" width="144" height="58" fill="none" rx="14" stroke="#060100" stroke-width="1.5"/>
	<line x1="646" y1="189" x2="790" y2="189" stroke="#060100" stroke-width="1.5"/>
	<text x="653" y="182.3" fill="#fefeec" font-family="Copperplate" font-size="18">correspondre</text>
	<text x="653" y="207.1" fill="#060100" font-family="Gill Sans" font-size="15">quantité</text>
</g>

<!-- Entity Livre -->
<g id="entity-Livre">
	<g id="frame-Livre">
		<rect x="505" y="109" width="112" height="30" fill="#c6281b" stroke="#c6281b" stroke-width="0"/>
		<rect x="505" y="139.0" width="112" height="132" fill="#fced5f" stroke="#fced5f" stroke-width="0"/>
		<rect x="505" y="109" width="112" height="162" fill="none" stroke="#060100" stroke-width="1.5"/>
		<line x1="505" y1="139" x2="617" y2="139" stroke="#060100" stroke-width="1.5"/>
	</g>
	<text x="536" y="130.3" fill="#fefeec" font-family="Copperplate" font-size="18">Livre</text>
	<text x="513" y="156.0" fill="#060100" font-family="Gill Sans" font-size="15">idLivre</text>
	<line x1="513" y1="159" x2="556" y2="159" stroke="#060100" stroke-width="1"/>
	<text x="513" y="173.1" fill="#060100" font-family="Gill Sans" font-size="15">titre</text>
	<text x="513" y="190.1" fill="#060100" font-family="Gill Sans" font-size="15">prix</text>
	<text x="513" y="207.1" fill="#060100" font-family="Gill Sans" font-size="15">ISBN</text>
	<text x="513" y="224.0" fill="#060100" font-family="Gill Sans" font-size="15">date_Parution</text>
	<text x="513" y="241.0" fill="#060100" font-family="Gill Sans" font-size="15">maison_edition</text>
	<text x="513" y="258.0" fill="#060100" font-family="Gill Sans" font-size="15">auteur</text>
</g>

<!-- Entity Categorie -->
<g id="entity-Categorie">
	<g id="frame-Categorie">
		<rect x="507" y="9" width="108" height="30" fill="#c6281b" stroke="#c6281b" stroke-width="0"/>
		<rect x="507" y="39.0" width="108" height="46" fill="#fced5f" stroke="#fced5f" stroke-width="0"/>
		<rect x="507" y="9" width="108" height="76" fill="none" stroke="#060100" stroke-width="1.5"/>
		<line x1="507" y1="39" x2="615" y2="39" stroke="#060100" stroke-width="1.5"/>
	</g>
	<text x="515" y="30.3" fill="#fefeec" font-family="Copperplate" font-size="18">Categorie</text>
	<text x="515" y="56.1" fill="#060100" font-family="Gill Sans" font-size="15">idCategorie</text>
	<line x1="515" y1="59" x2="589" y2="59" stroke="#060100" stroke-width="1"/>
	<text x="515" y="73.1" fill="#060100" font-family="Gill Sans" font-size="15">description</text>
</g>

<!-- Entity Client -->
<g id="entity-Client">
	<g id="frame-Client">
		<rect x="1379" y="135" width="78" height="30" fill="#c6281b" stroke="#c6281b" stroke-width="0"/>
		<rect x="1379" y="165.0" width="78" height="80" fill="#fced5f" stroke="#fced5f" stroke-width="0"/>
		<rect x="1379" y="135" width="78" height="110" fill="none" stroke="#060100" stroke-width="1.5"/>
		<line x1="1379" y1="165" x2="1457" y2="165" stroke="#060100" stroke-width="1.5"/>
	</g>
	<text x="1387" y="156.3" fill="#fefeec" font-family="Copperplate" font-size="18">Client</text>
	<text x="1387" y="182.1" fill="#060100" font-family="Gill Sans" font-size="15">idClient</text>
	<line x1="1387" y1="185" x2="1437" y2="185" stroke="#060100" stroke-width="1"/>
	<text x="1387" y="199.1" fill="#060100" font-family="Gill Sans" font-size="15">nom</text>
	<text x="1387" y="216.1" fill="#060100" font-family="Gill Sans" font-size="15">email</text>
	<text x="1387" y="233.0" fill="#060100" font-family="Gill Sans" font-size="15">mdp</text>
</g>

<!-- Entity Commande -->
<g id="entity-Commande">
	<g id="frame-Commande">
		<rect x="1093" y="152" width="110" height="30" fill="#c6281b" stroke="#c6281b" stroke-width="0"/>
		<rect x="1093" y="182.0" width="110" height="46" fill="#fced5f" stroke="#fced5f" stroke-width="0"/>
		<rect x="1093" y="152" width="110" height="76" fill="none" stroke="#060100" stroke-width="1.5"/>
		<line x1="1093" y1="182" x2="1203" y2="182" stroke="#060100" stroke-width="1.5"/>
	</g>
	<text x="1101" y="173.3" fill="#fefeec" font-family="Copperplate" font-size="18">Commande</text>
	<text x="1101" y="199.1" fill="#060100" font-family="Gill Sans" font-size="15">idCommande</text>
	<line x1="1101" y1="202" x2="1185" y2="202" stroke="#060100" stroke-width="1"/>
	<text x="1101" y="216.1" fill="#060100" font-family="Gill Sans" font-size="15">numero</text>
</g>

<!-- Entity Editeur -->
<g id="entity-Editeur">
	<g id="frame-Editeur">
		<rect x="263" y="143" width="112" height="30" fill="#c6281b" stroke="#c6281b" stroke-width="0"/>
		<rect x="263" y="173.0" width="112" height="64" fill="#fced5f" stroke="#fced5f" stroke-width="0"/>
		<rect x="263" y="143" width="112" height="94" fill="none" stroke="#060100" stroke-width="1.5"/>
		<line x1="263" y1="173" x2="375" y2="173" stroke="#060100" stroke-width="1.5"/>
	</g>
	<text x="283" y="164.3" fill="#fefeec" font-family="Copperplate" font-size="18">Editeur</text>
	<text x="271" y="190.1" fill="#060100" font-family="Gill Sans" font-size="15">idEditeur</text>
	<line x1="271" y1="193" x2="328" y2="193" stroke="#060100" stroke-width="1"/>
	<text x="271" y="207.1" fill="#060100" font-family="Gill Sans" font-size="15">maison_edition</text>
	<text x="271" y="224.0" fill="#060100" font-family="Gill Sans" font-size="15">date_parution</text>
</g>

<!-- Entity Auteur -->
<g id="entity-Auteur">
	<g id="frame-Auteur">
		<rect x="9" y="135" width="84" height="30" fill="#c6281b" stroke="#c6281b" stroke-width="0"/>
		<rect x="9" y="165.0" width="84" height="80" fill="#fced5f" stroke="#fced5f" stroke-width="0"/>
		<rect x="9" y="135" width="84" height="110" fill="none" stroke="#060100" stroke-width="1.5"/>
		<line x1="9" y1="165" x2="93" y2="165" stroke="#060100" stroke-width="1.5"/>
	</g>
	<text x="17" y="156.3" fill="#fefeec" font-family="Copperplate" font-size="18">Auteur</text>
	<text x="17" y="182.1" fill="#060100" font-family="Gill Sans" font-size="15">idAuteur</text>
	<line x1="17" y1="185" x2="73" y2="185" stroke="#060100" stroke-width="1"/>
	<text x="17" y="199.1" fill="#060100" font-family="Gill Sans" font-size="15">nom</text>
	<text x="17" y="216.1" fill="#060100" font-family="Gill Sans" font-size="15">prenom</text>
	<text x="17" y="233.0" fill="#060100" font-family="Gill Sans" font-size="15">titre</text>
</g>

<!-- Entity Exemplaire -->
<g id="entity-Exemplaire">
	<g id="frame-Exemplaire">
		<rect x="819" y="160" width="120" height="30" fill="#c6281b" stroke="#c6281b" stroke-width="0"/>
		<rect x="819" y="190.0" width="120" height="30" fill="#fced5f" stroke="#fced5f" stroke-width="0"/>
		<rect x="819" y="160" width="120" height="60" fill="none" stroke="#060100" stroke-width="1.5"/>
		<line x1="819" y1="190" x2="939" y2="190" stroke="#060100" stroke-width="1.5"/>
	</g>
	<text x="827" y="181.3" fill="#fefeec" font-family="Copperplate" font-size="18">Exemplaire</text>
	<text x="827" y="207.1" fill="#060100" font-family="Gill Sans" font-size="15">idExemplaire</text>
	<line x1="827" y1="210" x2="908" y2="210" stroke="#060100" stroke-width="1"/>
</g>
</svg>